<?xml version="1.0" standalone="no"?>
<!DOCTYPE svg PUBLIC "-//W3C//DTD SVG 20010904//EN"
 "http://www.w3.org/TR/2001/REC-SVG-20010904/DTD/svg10.dtd">
<svg version="1.0" xmlns="http://www.w3.org/2000/svg"
 width="500.000000pt" height="500.000000pt" viewBox="0 0 500.000000 500.000000"
 preserveAspectRatio="xMidYMid meet">
<metadata>
Created by potrace 1.14, written by Peter Selinger 2001-2017
</metadata>
<g transform="translate(0.000000,500.000000) scale(0.100000,-0.100000)"
fill="#000000" stroke="none">
<path d="M1473 4063 c3 -5 -19 -8 -49 -8 -30 0 -54 -3 -54 -7 0 -3 -8 -5 -17
-3 -10 1 -23 -2 -29 -7 -7 -5 -16 -8 -20 -7 -5 1 -11 0 -14 -1 -3 -1 -18 -4
-35 -6 -16 -3 -32 -8 -35 -12 -3 -4 -14 -7 -25 -7 -11 1 -22 -3 -25 -7 -3 -4
-17 -9 -30 -11 -45 -9 -140 -48 -140 -58 0 -6 -4 -8 -10 -4 -9 6 -50 -13 -61
-28 -3 -5 -10 -9 -15 -9 -24 -2 -44 -11 -44 -20 0 -5 -4 -7 -9 -3 -5 3 -12 1
-16 -5 -4 -6 -11 -8 -16 -5 -5 4 -9 2 -9 -3 0 -9 -77 -62 -91 -62 -5 0 -9 -4
-9 -9 0 -5 -9 -13 -20 -16 -11 -4 -18 -11 -15 -16 4 -5 0 -9 -7 -9 -20 0 -200
-165 -190 -174 3 -3 -3 -6 -13 -6 -10 0 -15 -3 -12 -7 4 -3 -7 -19 -23 -35
-17 -15 -30 -32 -30 -36 0 -5 -8 -17 -19 -28 -30 -33 -92 -124 -84 -124 5 0 0
-5 -10 -11 -9 -6 -15 -14 -12 -20 4 -5 1 -9 -5 -9 -6 0 -8 -4 -5 -10 3 -5 2
-10 -3 -10 -9 0 -37 -50 -34 -62 1 -5 -3 -8 -9 -8 -5 0 -7 -4 -4 -10 3 -5 3
-10 -2 -10 -7 0 -28 -51 -36 -87 -2 -7 -6 -16 -10 -19 -4 -4 -7 -16 -7 -26 0
-10 -5 -18 -12 -18 -6 0 -8 -3 -5 -7 4 -3 2 -12 -4 -20 -6 -7 -9 -13 -6 -13 4
0 -1 -19 -9 -42 -9 -24 -17 -47 -18 -53 -1 -5 -6 -16 -10 -24 -6 -10 -5 -12 2
-7 7 4 12 2 12 -3 0 -6 -4 -11 -10 -11 -5 0 -8 -13 -6 -30 2 -16 -1 -27 -5
-24 -5 3 -10 -7 -10 -23 -1 -15 -4 -48 -6 -73 -8 -70 -10 -390 -3 -390 3 0 6
-19 7 -42 1 -24 4 -53 7 -65 3 -13 9 -33 12 -45 3 -13 7 -30 8 -38 1 -9 5 -21
10 -28 4 -6 4 -12 0 -12 -3 0 -1 -7 6 -15 7 -8 10 -22 6 -30 -3 -8 -2 -15 3
-15 5 0 12 -16 15 -35 4 -19 12 -35 17 -35 6 0 7 -9 4 -21 -5 -15 -4 -19 4
-15 7 4 12 -1 12 -13 2 -37 4 -42 15 -49 6 -4 10 -15 8 -24 -1 -10 2 -18 7
-18 5 0 9 -7 9 -15 0 -9 6 -18 14 -21 8 -3 12 -12 9 -20 -3 -8 0 -14 6 -14 6
0 11 -5 11 -11 0 -5 18 -37 40 -69 22 -32 40 -61 40 -64 0 -6 7 -14 58 -71 12
-14 20 -25 16 -25 -4 0 9 -16 29 -35 21 -20 37 -38 37 -40 0 -10 49 -52 54
-47 3 3 6 0 6 -6 0 -10 40 -56 50 -57 6 -1 46 -34 76 -63 13 -13 24 -19 24
-15 0 4 4 4 8 -2 9 -13 142 -100 165 -108 9 -4 17 -10 17 -15 0 -4 9 -8 20 -9
24 -2 90 -33 108 -50 17 -17 25 -17 16 0 -6 9 -5 9 8 -1 21 -16 125 -52 132
-45 3 4 6 2 6 -3 0 -9 14 -13 58 -16 6 -1 12 -4 12 -8 0 -3 19 -7 42 -9 23 -1
45 -5 48 -9 3 -4 29 -8 59 -10 30 -1 61 -8 70 -15 12 -9 13 -9 7 1 -5 9 2 11
31 6 21 -3 42 -8 47 -12 5 -3 7 -1 3 4 -3 5 14 9 39 9 24 0 44 -4 44 -8 0 -5
5 -5 12 -1 7 4 31 8 55 10 24 1 47 4 50 8 3 3 12 1 18 -4 9 -7 16 -6 25 5 10
12 16 13 27 3 11 -9 16 -9 23 1 4 8 13 10 19 7 6 -4 11 -1 11 6 0 9 3 9 10 -2
5 -8 10 -10 10 -4 0 7 21 15 48 20 53 8 51 8 74 18 9 4 22 9 30 10 13 3 37 11
75 26 21 9 22 14 20 100 -2 49 1 90 6 90 4 0 5 5 2 11 -11 16 -12 149 -2 149
4 0 5 5 1 11 -10 16 -11 189 -1 189 4 0 5 6 1 12 -5 7 -7 36 -6 66 l1 53 -29
-18 c-17 -9 -30 -21 -30 -25 0 -4 -6 -8 -14 -8 -8 0 -21 -7 -30 -15 -8 -9 -18
-16 -21 -15 -17 0 -73 -35 -68 -44 4 -7 2 -7 -6 0 -10 9 -20 8 -43 -3 -39 -20
-129 -43 -140 -37 -4 3 -8 -1 -8 -8 0 -9 -3 -9 -10 2 -6 9 -10 10 -10 3 0 -6
-8 -12 -17 -12 -10 -1 -47 -3 -83 -4 -36 -2 -70 0 -77 5 -7 5 -14 5 -18 -2 -3
-5 -13 -10 -21 -10 -8 0 -13 3 -11 8 3 4 -15 6 -39 5 -28 -1 -44 2 -44 10 0 7
-4 6 -10 -3 -6 -10 -10 -11 -10 -2 0 6 -3 11 -7 11 -5 -1 -10 0 -13 1 -3 1
-14 3 -25 5 -38 6 -64 14 -83 24 -11 6 -22 7 -26 4 -3 -3 -6 -1 -6 5 0 7 -3
11 -7 10 -11 -3 -107 44 -111 54 -2 4 -11 8 -19 8 -9 0 -23 7 -32 15 -40 37
-74 65 -81 65 -3 0 -28 23 -56 51 -27 27 -57 58 -66 67 -10 9 -18 22 -18 28 0
7 -7 14 -15 18 -8 3 -15 13 -15 21 0 9 -4 14 -8 11 -5 -3 -15 10 -22 29 -8 19
-17 35 -22 35 -4 0 -8 7 -8 15 0 8 -5 15 -12 15 -6 0 -8 3 -5 7 4 3 2 12 -4
20 -6 7 -8 13 -5 13 4 0 -3 14 -15 32 -13 17 -18 29 -12 25 8 -5 8 0 0 17 -7
13 -14 23 -17 21 -3 -2 -7 7 -8 21 -3 45 -5 54 -12 54 -4 0 -7 6 -7 13 -2 27
-12 83 -18 100 -5 11 -2 17 6 17 12 0 12 2 1 9 -8 4 -13 11 -13 15 1 3 1 7 0
9 -6 19 -2 67 6 67 7 0 7 3 0 8 -11 7 -17 84 -6 78 3 -2 7 12 7 32 3 76 9 122
18 122 4 0 6 7 3 15 -4 8 -2 17 4 20 5 4 7 10 4 15 -3 5 -1 11 5 15 6 4 8 10
5 15 -3 5 -1 11 5 15 6 4 8 11 5 16 -4 5 -1 9 5 9 6 0 9 4 5 9 -3 5 1 15 8 23
8 7 13 21 11 31 -1 9 2 17 7 17 5 0 9 7 9 15 0 8 5 15 10 15 6 0 10 9 10 20 0
11 5 20 10 20 6 0 10 7 10 15 0 8 5 15 10 15 6 0 10 7 10 15 0 9 7 18 15 21 8
4 15 11 15 18 0 6 16 29 35 51 19 22 35 44 35 48 0 5 5 5 10 2 6 -3 10 1 10 9
0 9 12 22 28 30 15 8 43 30 62 50 19 19 40 36 46 36 6 0 17 6 23 14 9 11 135
79 151 81 3 0 14 6 25 12 22 12 85 28 98 25 4 -1 7 3 7 10 0 9 3 9 11 1 8 -8
18 -7 37 3 18 9 30 10 38 3 8 -7 14 -6 19 1 4 6 26 11 49 10 22 -1 43 -1 46 0
17 6 120 4 120 -2 0 -4 10 -8 23 -8 57 0 97 -5 97 -10 0 -4 6 -7 13 -8 46 -5
71 -12 94 -27 15 -11 22 -12 17 -4 -4 7 6 3 23 -9 17 -12 36 -22 41 -22 15 0
112 -61 112 -70 0 -4 9 -10 20 -13 18 -5 20 -1 16 49 -2 30 0 54 6 54 5 0 6 5
2 11 -10 16 -11 269 -1 269 5 0 5 5 1 11 -10 17 -11 149 -1 149 4 0 5 5 1 12
-4 7 -8 35 -8 62 -1 35 -5 51 -14 51 -7 0 -16 5 -20 10 -4 6 -18 12 -32 13
-14 2 -30 8 -36 13 -6 5 -14 6 -17 2 -4 -3 -7 -1 -7 7 0 9 -3 10 -14 1 -11 -9
-15 -9 -18 0 -2 7 -15 13 -29 15 -13 1 -24 3 -24 4 0 1 -25 7 -61 14 -7 1 -19
8 -28 15 -11 10 -16 10 -16 2 0 -7 -5 -9 -11 -5 -7 4 -25 7 -40 6 -16 0 -29 3
-29 8 0 6 -10 6 -25 0 -14 -5 -25 -6 -25 -2 0 4 -11 8 -25 8 -14 1 -22 -2 -19
-8 4 -6 -4 -4 -17 3 -28 15 -29 15 -40 -3 -5 -7 -9 -8 -9 -2 0 12 -58 12 -77
1 -6 -4 -14 -3 -18 3 -3 5 -11 10 -16 10 -6 0 -8 -3 -6 -7z"/>
<path d="M3266 4063 c-5 -5 -43 -10 -113 -15 -7 -1 -13 -4 -13 -8 0 -3 -10 -6
-22 -7 -13 -1 -36 -4 -53 -8 -16 -4 -36 -8 -42 -8 -7 0 -13 -4 -13 -8 0 -4 -8
-7 -17 -7 -21 1 -46 -5 -53 -12 -3 -4 -24 -12 -47 -18 -50 -15 -56 -27 -53
-112 1 -8 -1 -32 -2 -52 -2 -21 0 -38 3 -38 7 0 2 -57 -6 -71 -4 -5 -2 -9 3
-9 12 0 9 -73 -3 -83 -7 -6 -7 -10 0 -13 6 -2 9 -19 8 -37 -8 -94 -8 -107 -2
-107 7 0 2 -57 -6 -71 -4 -5 -2 -9 3 -9 12 0 9 -73 -3 -83 -7 -6 -7 -10 0 -13
6 -2 9 -19 8 -37 -8 -94 -8 -107 -2 -107 7 0 2 -57 -6 -71 -4 -5 -2 -9 3 -9
12 0 9 -73 -3 -83 -7 -6 -7 -10 0 -13 6 -2 9 -20 8 -39 -2 -19 -4 -51 -6 -70
-1 -19 1 -35 4 -35 7 0 2 -57 -6 -71 -4 -5 -2 -9 3 -9 12 0 9 -73 -3 -83 -7
-6 -7 -10 0 -13 6 -2 9 -20 8 -39 -2 -19 -4 -51 -6 -70 -1 -19 0 -35 4 -35 8
0 5 -32 -5 -48 -4 -7 -2 -12 4 -12 7 0 8 -6 1 -18 -6 -11 -5 -25 2 -39 14 -26
27 -30 38 -11 5 7 9 8 9 3 0 -9 118 -13 128 -5 3 3 50 3 60 0 19 -6 38 -5 54
2 9 5 19 4 22 0 4 -7 96 -9 104 -2 3 3 51 3 57 0 14 -7 31 -5 43 3 7 5 12 6
12 1 0 -8 119 -11 128 -4 3 3 50 3 60 0 19 -6 38 -5 53 2 9 4 20 4 23 0 12
-11 90 -9 105 2 11 8 13 8 7 -1 -4 -9 -2 -11 7 -7 15 5 18 60 4 81 -4 6 -2 15
4 18 6 4 8 18 4 32 -3 15 -2 22 4 19 9 -6 9 19 0 28 -3 3 -4 36 -2 73 3 84 -1
100 -22 83 -10 -9 -15 -9 -15 -1 0 6 -5 11 -11 11 -5 0 -7 -6 -3 -12 5 -9 2
-9 -9 1 -11 8 -17 9 -17 2 0 -7 -8 -8 -25 -1 -18 7 -25 6 -25 -3 0 -7 -3 -8
-8 -2 -10 14 -42 15 -42 1 0 -6 -5 -4 -10 4 -6 9 -10 10 -10 3 0 -8 -9 -9 -30
-3 -17 5 -30 5 -30 0 0 -5 -6 -7 -12 -5 -35 11 -78 12 -78 2 0 -8 -3 -8 -8 -2
-9 13 -82 13 -82 0 0 -5 -5 -4 -12 3 -16 16 -31 15 -22 0 5 -9 2 -9 -9 1 -9 7
-17 9 -17 3 0 -5 -9 -8 -19 -5 -17 4 -19 16 -20 126 -1 66 -4 124 -7 129 -3 4
-2 8 3 8 4 0 6 54 3 120 -3 66 -3 120 0 120 3 0 3 32 0 70 -3 39 -3 70 0 70 3
0 6 9 6 20 0 11 -5 20 -11 20 -5 0 -3 5 5 10 9 6 10 10 3 10 -9 0 -9 8 -2 30
6 17 17 30 24 30 7 0 16 6 18 13 4 8 6 9 6 0 1 -8 10 -9 29 -5 24 6 128 8 142
2 3 -1 21 -3 40 -4 19 -1 46 -6 59 -10 18 -6 22 -5 16 5 -6 11 -5 11 5 2 7 -6
19 -9 26 -6 8 3 14 1 14 -4 0 -5 6 -10 13 -11 27 -2 73 -14 102 -27 16 -8 37
-15 45 -17 8 -2 23 -11 34 -20 11 -10 28 -18 38 -18 10 0 18 -4 18 -10 0 -5 7
-10 16 -10 8 0 12 -4 9 -10 -3 -5 3 -10 14 -10 11 0 27 -10 35 -22 9 -12 16
-18 16 -13 0 5 9 -1 20 -12 11 -12 33 -30 50 -39 16 -10 30 -21 30 -25 0 -3
10 -17 23 -31 58 -65 77 -89 77 -98 0 -5 5 -10 10 -10 6 0 10 -5 10 -10 0 -6
9 -20 20 -32 11 -12 20 -28 20 -35 0 -7 5 -13 11 -13 5 0 7 -4 4 -10 -3 -5 -1
-10 6 -10 7 0 9 -3 6 -7 -4 -3 0 -15 10 -25 9 -10 13 -18 9 -18 -3 0 0 -13 8
-29 9 -16 12 -31 9 -35 -4 -3 -2 -6 4 -6 5 0 10 -6 11 -12 0 -7 3 -24 7 -38 3
-14 8 -36 11 -50 3 -13 10 -30 15 -36 7 -8 6 -14 -1 -19 -8 -5 -8 -11 1 -21 6
-8 9 -17 6 -21 -4 -3 -1 -13 6 -21 9 -12 9 -16 -1 -19 -6 -3 -9 -10 -5 -16 10
-15 10 -197 1 -197 -4 0 -5 -9 -3 -20 2 -11 -2 -20 -8 -20 -8 0 -8 -3 2 -9 9
-6 10 -11 2 -15 -6 -4 -11 -21 -11 -37 0 -17 -4 -28 -8 -25 -4 3 -7 -8 -6 -25
1 -16 -2 -29 -7 -29 -4 0 -6 -7 -3 -15 4 -8 1 -15 -5 -15 -7 0 -11 -6 -10 -12
3 -21 -22 -78 -32 -72 -5 3 -6 -2 -3 -10 3 -9 -1 -23 -10 -32 -9 -8 -14 -20
-11 -25 4 -5 1 -9 -4 -9 -6 0 -11 -5 -11 -11 0 -7 -8 -18 -17 -26 -11 -9 -12
-12 -3 -7 8 4 3 -4 -12 -19 -16 -14 -28 -30 -28 -34 0 -4 -18 -28 -40 -53 -22
-25 -44 -49 -49 -55 -11 -14 -63 -57 -87 -73 -10 -7 -40 -26 -66 -43 -27 -17
-48 -35 -48 -40 0 -6 -4 -8 -9 -4 -5 3 -12 1 -16 -5 -4 -6 -11 -8 -16 -5 -5 4
-9 1 -9 -5 0 -7 -6 -10 -12 -8 -7 3 -21 -3 -31 -13 -11 -10 -25 -15 -33 -12
-8 3 -14 0 -14 -6 0 -6 -3 -10 -7 -9 -5 1 -26 -4 -47 -10 -22 -6 -43 -9 -48
-6 -4 3 -8 1 -8 -4 0 -5 -6 -9 -12 -10 -20 -2 -79 -10 -121 -17 -29 -4 -37 -2
-31 7 6 10 5 10 -7 1 -8 -7 -26 -9 -39 -6 -16 4 -21 3 -16 -5 5 -8 2 -10 -8
-6 -9 3 -13 11 -9 17 4 6 1 7 -8 1 -17 -11 -59 -13 -59 -3 0 5 -10 6 -22 4
-12 -3 -28 1 -37 8 -12 9 -13 9 -7 -1 4 -6 2 -12 -3 -12 -6 0 -11 5 -11 11 0
6 -7 9 -15 5 -8 -3 -15 -2 -15 2 0 4 -8 8 -17 9 -26 2 -46 8 -61 17 -7 4 -16
5 -19 2 -3 -3 -12 2 -20 12 -10 11 -12 12 -8 2 5 -12 4 -12 -7 1 -7 9 -19 14
-25 12 -7 -3 -13 0 -13 6 0 6 -3 10 -7 9 -12 -4 -73 26 -73 34 0 5 -5 8 -11 8
-6 0 -26 12 -45 26 -32 25 -41 22 -34 -11 7 -31 4 -76 -5 -80 -7 -3 -7 -7 0
-10 12 -6 11 -67 0 -86 -6 -8 -4 -10 4 -4 10 6 11 3 2 -14 -7 -11 -8 -21 -3
-21 9 0 7 -61 -3 -87 -2 -6 1 -14 8 -17 9 -3 8 -5 -1 -5 -9 -1 -10 -6 -2 -20
7 -14 6 -21 -3 -24 -7 -3 -8 -6 -1 -6 10 -1 10 -58 -1 -88 -2 -6 1 -14 8 -17
9 -3 8 -5 -1 -5 -7 -1 -10 -6 -6 -12 11 -18 11 -53 -1 -62 -7 -6 -6 -10 1 -13
6 -3 9 -15 7 -28 -5 -27 20 -56 48 -56 10 0 19 -4 19 -8 0 -4 12 -9 26 -10 14
-1 31 -5 37 -9 13 -8 41 -15 72 -17 11 0 23 -5 27 -10 3 -5 19 -10 35 -11 16
-1 35 -5 42 -10 10 -6 12 -4 6 4 -6 10 -3 11 14 2 11 -7 21 -8 21 -4 0 4 5 1
10 -7 7 -11 10 -11 10 -2 0 7 4 11 8 8 5 -3 37 -8 73 -12 35 -3 66 -8 69 -10
3 -1 12 1 20 6 8 5 22 5 32 -1 10 -5 18 -6 18 -2 0 4 26 8 58 9 31 0 66 5 76
9 14 6 17 5 12 -3 -4 -7 -2 -12 3 -12 6 0 11 4 11 8 0 7 9 9 65 14 14 1 25 5
25 9 0 4 9 5 20 2 11 -3 20 -1 20 4 0 6 11 9 25 8 14 -2 25 1 25 5 0 5 9 7 20
5 11 -2 20 0 20 6 0 5 3 8 8 7 14 -4 77 15 97 28 11 8 27 14 37 14 9 0 24 7
32 16 9 8 16 12 16 9 0 -4 11 0 25 9 14 9 25 14 25 10 0 -3 16 4 35 16 19 12
40 18 46 14 8 -4 9 -3 5 5 -5 7 4 15 23 22 17 6 31 15 31 21 0 5 5 6 10 3 6
-3 10 -2 10 2 0 5 12 16 28 25 15 10 43 31 62 47 19 17 41 31 48 31 7 0 11 3
9 8 -3 4 1 13 9 20 8 7 14 10 14 6 0 -4 11 5 24 19 13 14 26 23 29 21 3 -3 8
4 12 15 3 12 11 19 16 16 5 -4 9 -2 9 3 0 5 10 20 23 34 73 81 87 99 87 108 0
6 5 8 10 5 6 -3 10 -1 10 5 0 6 6 18 13 25 29 34 37 45 31 45 -4 0 2 8 12 18
10 9 20 24 22 32 2 8 9 22 16 30 8 8 11 21 8 29 -3 8 0 11 7 7 6 -4 11 -1 11
8 0 9 5 16 11 16 5 0 7 5 4 10 -3 6 -2 10 3 10 9 0 26 48 22 59 -1 2 5 8 14
13 9 5 14 13 11 19 -4 5 1 19 9 31 9 12 16 30 16 40 0 10 4 18 8 18 8 0 38 98
34 113 -1 4 2 7 6 7 4 0 9 8 10 18 3 28 7 46 13 57 3 6 7 28 8 50 2 22 7 48
12 57 7 13 6 18 -3 18 -10 0 -10 2 1 9 11 7 11 9 0 13 -11 4 -11 8 -2 19 7 8
13 51 15 94 1 44 7 83 13 87 6 5 5 8 -2 8 -7 0 -13 7 -13 16 0 9 5 12 13 8 9
-6 9 -5 0 7 -7 9 -11 32 -10 53 2 20 1 39 -3 41 -3 2 -5 22 -4 44 0 23 -4 41
-9 41 -5 0 -5 6 2 13 6 8 8 17 5 20 -3 3 -8 23 -11 44 -3 21 -9 43 -15 50 -6
7 -5 14 3 18 8 5 8 9 0 14 -6 4 -12 19 -13 34 -1 15 -5 27 -8 27 -3 0 -7 12
-8 27 -1 15 -7 30 -13 34 -7 4 -9 11 -5 17 3 6 2 13 -4 17 -6 4 -8 11 -5 16 4
5 1 9 -4 9 -6 0 -11 6 -11 14 0 7 -8 31 -17 52 -9 22 -16 42 -15 47 1 4 -3 7
-9 7 -6 0 -9 7 -5 15 3 8 1 15 -5 15 -5 0 -15 14 -20 30 -6 17 -15 30 -21 30
-5 0 -6 5 -3 10 3 6 1 10 -5 10 -6 0 -9 4 -6 9 3 5 -1 14 -9 21 -8 7 -12 16
-9 21 3 5 0 9 -5 9 -6 0 -11 7 -11 15 0 8 -4 15 -8 15 -5 0 -15 12 -23 27 -8
15 -26 39 -40 53 -15 14 -26 27 -25 30 0 3 -16 23 -36 45 -20 22 -36 42 -35
45 1 3 -18 23 -43 45 -25 22 -57 52 -72 66 -14 15 -29 25 -32 21 -3 -3 -6 -1
-6 4 0 5 -14 18 -30 28 -17 9 -27 22 -24 28 4 6 3 8 -3 5 -5 -3 -21 5 -34 17
-14 13 -35 27 -47 30 -12 4 -22 12 -22 17 0 6 -4 7 -10 4 -5 -3 -10 -2 -10 3
0 4 -16 14 -35 22 -19 8 -35 17 -35 22 0 4 -9 8 -20 8 -11 0 -20 5 -20 11 0 6
-7 9 -15 5 -10 -3 -15 1 -15 11 0 9 -3 13 -7 10 -3 -4 -15 1 -26 10 -11 10
-17 12 -13 6 4 -7 2 -13 -3 -13 -6 0 -11 5 -11 11 0 6 -7 9 -15 5 -8 -3 -15
-2 -15 3 0 8 -41 23 -56 20 -4 0 -10 4 -13 10 -4 6 -19 12 -34 13 -15 1 -27 5
-27 8 0 3 -12 7 -27 8 -15 1 -29 5 -32 10 -3 4 -21 8 -40 10 -19 1 -40 7 -47
13 -7 6 -18 8 -23 5 -5 -4 -13 -2 -16 4 -5 8 -11 7 -21 -1 -9 -7 -14 -8 -14
-1 0 5 -9 8 -20 5 -12 -3 -20 0 -20 6 0 8 -5 9 -17 3 -10 -6 -29 -6 -47 -1
-20 6 -32 5 -34 -1 -2 -6 -9 -7 -15 -3 -20 12 -47 14 -47 2 0 -6 -5 -7 -12 -2
-21 12 -48 14 -48 2 0 -5 -4 -7 -10 -4 -15 10 -48 14 -54 8z"/>
<path d="M1472 2938 c-2 -10 -9 -15 -15 -11 -6 3 -3 -4 6 -17 12 -18 14 -27 5
-37 -8 -10 -7 -13 3 -13 12 0 12 -2 0 -9 -10 -6 -11 -13 -2 -29 8 -15 8 -23 0
-28 -8 -4 -7 -9 2 -15 8 -5 10 -9 4 -9 -6 0 -9 -27 -7 -67 1 -36 -1 -64 -4
-60 -3 3 -17 2 -30 -3 -14 -6 -24 -6 -24 0 0 5 -12 6 -27 4 -30 -6 -42 -6 -88
-2 -16 2 -36 -1 -43 -6 -8 -6 -16 -6 -20 0 -6 8 -38 10 -92 5 -13 -1 -13 -2 0
-11 10 -7 12 -12 4 -17 -14 -10 -14 -43 0 -43 7 0 7 -3 1 -8 -13 -9 -15 -72
-3 -72 5 0 6 -6 2 -12 -11 -18 -12 -48 -2 -54 4 -3 5 -11 1 -17 -10 -17 -11
-47 -1 -48 4 -1 14 -2 21 -3 6 -1 16 0 21 3 14 7 59 6 78 -2 9 -3 19 -1 22 6
3 9 5 8 5 -1 1 -9 6 -10 20 -3 10 6 21 8 24 5 10 -10 57 -11 57 -1 0 5 6 4 14
-2 9 -8 16 -8 20 -2 5 7 15 6 32 -1 18 -8 21 -14 12 -20 -7 -4 -8 -8 -3 -8 17
0 12 -40 -5 -40 -12 0 -13 -2 -1 -9 8 -5 12 -18 8 -30 -3 -12 0 -21 6 -21 8 0
8 -3 2 -8 -14 -10 -17 -32 -4 -32 8 0 8 -4 0 -14 -9 -11 -9 -16 0 -21 8 -6 7
-10 -2 -16 -11 -7 -11 -9 1 -9 13 0 13 -1 0 -10 -13 -8 -13 -10 -1 -10 11 0
12 -3 4 -11 -6 -6 -9 -19 -6 -29 6 -22 30 -34 38 -19 4 5 12 6 18 2 17 -10
248 -10 255 1 8 15 8 66 -1 66 -5 0 -5 5 -1 12 12 18 11 58 -1 58 -6 0 -7 3 0
8 13 9 18 32 7 32 -5 0 -9 7 -9 15 0 8 3 15 6 15 3 0 7 11 7 25 1 14 -1 25 -5
25 -4 0 -6 13 -3 30 2 17 9 27 15 23 16 -9 77 -9 77 1 0 5 6 3 14 -3 9 -8 16
-8 20 -2 5 7 15 7 31 1 17 -6 25 -6 25 1 0 6 6 7 12 3 18 -11 48 -12 48 -2 0
5 5 6 12 2 21 -13 70 -9 77 6 9 19 7 82 -3 98 -4 7 -4 12 1 12 10 0 9 52 -1
68 -4 7 -4 12 1 12 10 0 9 68 -1 78 -11 10 -30 9 -38 -3 -5 -6 -8 -5 -8 3 0
10 -5 10 -20 2 -15 -8 -20 -8 -20 1 0 8 -4 9 -13 0 -8 -6 -16 -8 -20 -5 -9 10
-57 12 -57 2 0 -5 -10 -4 -21 3 -17 9 -20 8 -14 -2 6 -8 4 -10 -4 -4 -19 11
-90 11 -95 0 -3 -5 -5 -2 -5 8 -1 9 -6 17 -11 17 -7 0 -7 7 1 21 6 12 7 24 3
28 -12 8 -16 31 -6 31 5 0 9 7 9 15 0 8 -4 15 -8 15 -5 0 -4 12 2 27 7 19 6
28 -2 33 -8 6 -7 9 2 13 10 4 10 6 2 6 -9 1 -10 8 -2 28 7 20 7 29 -1 31 -8 3
-8 8 0 17 20 24 -9 29 -159 29 -129 1 -145 -1 -149 -16z"/>
</g>
</svg>
